D:\school\WTK\thesis\model\3dpredictsim\Results\batch_windlass\Pog_s1_tmt_bCst_d00_k500_WL30_ig24_pas_GRF.mot
nRows=25
nColumns=19

name D:\school\WTK\thesis\model\3dpredictsim\Results\batch_windlass\Pog_s1_tmt_bCst_d00_k500_WL30_ig24_pas_GRF.mot
datacolumns 19
datarows 25
range 0.0000000000 0.2705968764
endheader
time 	ground_force_vx	ground_force_vy	ground_force_vz	ground_force_px	ground_force_py	ground_force_pz	1_ground_force_vx	1_ground_force_vy	1_ground_force_vz	1_ground_force_px	1_ground_force_py	1_ground_force_pz	ground_torque_x	ground_torque_y	ground_torque_z	1_ground_torque_x	1_ground_torque_y	1_ground_torque_z
        0.0000000000	      -82.2326398437	       66.6792471139	       28.5717536915	        0.1655497235	        0.0000000000	        0.0393520757	       86.4418107946	      436.7459360809	       -3.2950544475	       -0.3251793349	        0.0000000000	       -0.0316951120	        0.0000000000	        0.0000000000	        0.0000000000	        0.0000000000	        0.0000000000	        0.0000000000	
        0.0112748699	     -132.5133421388	      146.4145100273	       69.3359047441	        0.1733686349	        0.0000000000	        0.0370975175	       61.6214123029	      340.3008259633	       -9.8148320851	       -0.3189619519	        0.0000000000	       -0.0293509494	        0.0000000000	        0.0000000000	        0.0000000000	        0.0000000000	        0.0000000000	        0.0000000000	
        0.0225497397	      -63.6525400760	      298.7155105806	       30.4254476051	        0.1795724846	        0.0000000000	        0.0349133241	       33.5436999570	      238.8072146940	      -11.9910288558	       -0.3087310520	        0.0000000000	       -0.0246509907	        0.0000000000	        0.0000000000	        0.0000000000	        0.0000000000	        0.0000000000	        0.0000000000	
        0.0338246096	      -50.5929560569	      485.3740589240	        1.5784612805	        0.1846138441	        0.0000000000	        0.0353233888	       13.4590663704	      162.7745299214	      -10.3334374937	       -0.2956546278	        0.0000000000	       -0.0173561659	        0.0000000000	        0.0000000000	        0.0000000000	        0.0000000000	        0.0000000000	        0.0000000000	
        0.0450994794	      -78.7942416307	      695.9171701762	       -9.8009988005	        0.1930922426	        0.0000000000	        0.0377920233	        2.6109226842	      130.4183328918	       -8.7279578081	       -0.2959842398	        0.0000000000	       -0.0173752190	        0.0000000000	        0.0000000000	        0.0000000000	        0.0000000000	        0.0000000000	        0.0000000000	
        0.0563743493	     -102.8989320000	      817.2509050808	      -14.9309655348	        0.1993341683	        0.0000000000	        0.0395700089	       -1.5828273038	       85.4385980862	       -7.9442450677	       -0.2956695197	        0.0000000000	       -0.0174524993	        0.0000000000	        0.0000000000	        0.0000000000	        0.0000000000	        0.0000000000	        0.0000000000	
        0.0676492191	     -111.9396463675	      858.0411972164	      -16.6378853295	        0.2042511655	        0.0000000000	        0.0408100078	       -8.5251850952	       35.6292914998	       -5.0974242922	       -0.2962761976	        0.0000000000	       -0.0175437150	        0.0000000000	        0.0000000000	        0.0000000000	        0.0000000000	        0.0000000000	        0.0000000000	
        0.0789240890	     -117.1182462233	      866.1047557923	      -16.2807377938	        0.2084461038	        0.0000000000	        0.0415996826	        0.0952464365	       -0.0962584193	        0.0008060351	        0.0000000000	        0.0000000000	        0.0000000000	        0.0000000000	        0.0000000000	        0.0000000000	        0.0000000000	        0.0000000000	        0.0000000000	
        0.0901989588	     -109.0473156096	      857.4262759608	      -15.6547646978	        0.2122628717	        0.0000000000	        0.0417953037	        0.0000436081	       -0.0000364533	       -0.0000028769	        0.0000000000	        0.0000000000	        0.0000000000	        0.0000000000	        0.0000000000	        0.0000000000	        0.0000000000	        0.0000000000	        0.0000000000	
        0.1014738287	      -95.7339190294	      824.0584156692	      -16.7115238773	        0.2165588608	        0.0000000000	        0.0418106933	        0.0000125487	       -0.0000091905	       -0.0000009710	        0.0000000000	        0.0000000000	        0.0000000000	        0.0000000000	        0.0000000000	        0.0000000000	        0.0000000000	        0.0000000000	        0.0000000000	
        0.1127486985	      -82.9504389117	      784.2639119195	      -16.5325592240	        0.2212353032	        0.0000000000	        0.0416735198	        0.0000574741	       -0.0000378584	       -0.0000047962	        0.0000000000	        0.0000000000	        0.0000000000	        0.0000000000	        0.0000000000	        0.0000000000	        0.0000000000	        0.0000000000	        0.0000000000	
        0.1240235684	      -71.1918662672	      740.2809805970	      -16.1702780089	        0.2256616362	        0.0000000000	        0.0415410813	        0.0020839949	       -0.0012720455	       -0.0001748881	        0.0000000000	        0.0000000000	        0.0000000000	        0.0000000000	        0.0000000000	        0.0000000000	        0.0000000000	        0.0000000000	        0.0000000000	
        0.1352984382	      -60.0518475402	      699.1917025784	      -16.2239020993	        0.2296818009	        0.0000000000	        0.0414778012	       -0.0148195689	        0.0084894831	        0.0012335608	        0.0000000000	        0.0000000000	        0.0000000000	        0.0000000000	        0.0000000000	        0.0000000000	        0.0000000000	        0.0000000000	        0.0000000000	
        0.1465733081	      -49.9371370191	      665.0275298889	      -16.6812351254	        0.2335735146	        0.0000000000	        0.0414799427	       -0.0129065731	        0.0069682333	        0.0010832661	        0.0000000000	        0.0000000000	        0.0000000000	        0.0000000000	        0.0000000000	        0.0000000000	        0.0000000000	        0.0000000000	        0.0000000000	
        0.1578481779	      -41.2360024547	      638.1377651481	      -17.3394076427	        0.2375405316	        0.0000000000	        0.0415251193	       -0.0078288267	        0.0039944510	        0.0006753257	        0.0000000000	        0.0000000000	        0.0000000000	        0.0000000000	        0.0000000000	        0.0000000000	        0.0000000000	        0.0000000000	        0.0000000000	
        0.1691230478	      -33.9671616369	      617.1123251051	      -18.1403763983	        0.2415722462	        0.0000000000	        0.0415924606	       -0.0057946147	        0.0028064102	        0.0005166577	        0.0000000000	        0.0000000000	        0.0000000000	        0.0000000000	        0.0000000000	        0.0000000000	        0.0000000000	        0.0000000000	        0.0000000000	
        0.1803979176	      -27.7955430098	      600.8436725851	      -18.7082249538	        0.2457793814	        0.0000000000	        0.0416692100	       -0.0057308294	        0.0026508716	        0.0005270465	        0.0000000000	        0.0000000000	        0.0000000000	        0.0000000000	        0.0000000000	        0.0000000000	        0.0000000000	        0.0000000000	        0.0000000000	
        0.1916727875	      -22.9717872604	      589.1312670739	      -19.0465778997	        0.2503380963	        0.0000000000	        0.0417276619	       -0.0075733217	        0.0033684784	        0.0007118371	        0.0000000000	        0.0000000000	        0.0000000000	        0.0000000000	        0.0000000000	        0.0000000000	        0.0000000000	        0.0000000000	        0.0000000000	
        0.2029476573	      -20.3539217976	      582.1498235738	      -19.0878905044	        0.2551701499	        0.0000000000	        0.0417465524	       -0.0128218582	        0.0055184570	        0.0012207194	        0.0000000000	        0.0000000000	        0.0000000000	        0.0000000000	        0.0000000000	        0.0000000000	        0.0000000000	        0.0000000000	        0.0000000000	
        0.2142225272	      -18.2320564685	      579.0686230268	      -18.9976919187	        0.2602770821	        0.0000000000	        0.0417136900	       -0.0259918640	        0.0108817205	        0.0024862683	        0.0000000000	        0.0000000000	        0.0000000000	        0.0000000000	        0.0000000000	        0.0000000000	        0.0000000000	        0.0000000000	        0.0000000000	
        0.2254973970	      -16.5098504773	      578.0847911921	      -18.8686663169	        0.2655969107	        0.0000000000	        0.0416251655	       -0.0581061032	        0.0237600878	        0.0055471222	        0.0000000000	        0.0000000000	        0.0000000000	        0.0000000000	        0.0000000000	        0.0000000000	        0.0000000000	        0.0000000000	        0.0000000000	
        0.2367722669	      -14.6988423665	      578.1140540772	      -18.6773140527	        0.2710512368	        0.0000000000	        0.0414905786	       -0.1314401976	        0.0526654929	        0.0124725733	        0.0000000000	        0.0000000000	        0.0000000000	        0.0000000000	        0.0000000000	        0.0000000000	        0.0000000000	        0.0000000000	        0.0000000000	
        0.2480471367	      -12.7630702766	      578.1347843518	      -18.4667720369	        0.2765796461	        0.0000000000	        0.0413191274	       -0.2774054796	        0.1092352918	        0.0260965184	        0.0000000000	        0.0000000000	        0.0000000000	        0.0000000000	        0.0000000000	        0.0000000000	        0.0000000000	        0.0000000000	        0.0000000000	
        0.2593220066	      -10.6751715124	      577.4024942233	      -18.1798600463	        0.2821005430	        0.0000000000	        0.0411235671	       -0.5131476587	        0.1992161324	        0.0476759732	        0.0000000000	        0.0000000000	        0.0000000000	        0.0000000000	        0.0000000000	        0.0000000000	        0.0000000000	        0.0000000000	        0.0000000000	
        0.2705968764	       -8.2953873589	      575.1971819441	      -17.9458205117	        0.2875484705	        0.0000000000	        0.0409135585	       -0.8077923398	        0.3102588984	        0.0737419726	        0.0000000000	        0.0000000000	        0.0000000000	        0.0000000000	        0.0000000000	        0.0000000000	        0.0000000000	        0.0000000000	        0.0000000000	
